<mxfile host="app.diagrams.net" agent="Mozilla/5.0 (Windows NT 10.0; Win64; x64) AppleWebKit/537.36 (KHTML, like Gecko) Chrome/130.0.0.0 Safari/537.36" version="24.8.2">
  <diagram name="Page-1" id="64c3da0e-402f-94eb-ee01-a36477274f13">
    <mxGraphModel dx="1909" dy="1013" grid="1" gridSize="10" guides="1" tooltips="1" connect="1" arrows="1" fold="1" page="1" pageScale="1" pageWidth="1169" pageHeight="826" background="none" math="0" shadow="0">
      <root>
        <mxCell id="0" />
        <mxCell id="1" parent="0" />
        <mxCell id="105" value="" style="edgeStyle=elbowEdgeStyle;elbow=horizontal;rounded=0;fontColor=#000000;endArrow=none;endFill=0;strokeWidth=8;strokeColor=#23445D;" parent="1" target="23" edge="1">
          <mxGeometry width="100" height="100" relative="1" as="geometry">
            <mxPoint x="70" y="330" as="sourcePoint" />
            <mxPoint x="110" y="380" as="targetPoint" />
            <Array as="points">
              <mxPoint x="50" y="380" />
            </Array>
          </mxGeometry>
        </mxCell>
        <mxCell id="106" value="" style="edgeStyle=elbowEdgeStyle;elbow=horizontal;rounded=0;fontColor=#000000;endArrow=none;endFill=0;strokeWidth=8;strokeColor=#23445D;" parent="1" target="24" edge="1">
          <mxGeometry width="100" height="100" relative="1" as="geometry">
            <mxPoint x="70" y="330" as="sourcePoint" />
            <mxPoint x="80" y="440" as="targetPoint" />
            <Array as="points">
              <mxPoint x="50" y="400" />
            </Array>
          </mxGeometry>
        </mxCell>
        <mxCell id="107" value="" style="edgeStyle=elbowEdgeStyle;elbow=horizontal;rounded=0;fontColor=#000000;endArrow=none;endFill=0;strokeWidth=8;strokeColor=#23445D;" parent="1" target="27" edge="1">
          <mxGeometry width="100" height="100" relative="1" as="geometry">
            <mxPoint x="70" y="330" as="sourcePoint" />
            <mxPoint x="80" y="440" as="targetPoint" />
            <Array as="points">
              <mxPoint x="50" y="540" />
            </Array>
          </mxGeometry>
        </mxCell>
        <mxCell id="109" value="" style="edgeStyle=elbowEdgeStyle;elbow=horizontal;rounded=0;fontColor=#000000;endArrow=none;endFill=0;strokeWidth=8;strokeColor=#23445D;" parent="1" target="26" edge="1">
          <mxGeometry width="100" height="100" relative="1" as="geometry">
            <mxPoint x="70" y="330" as="sourcePoint" />
            <mxPoint x="100" y="460" as="targetPoint" />
            <Array as="points">
              <mxPoint x="50" y="410" />
            </Array>
          </mxGeometry>
        </mxCell>
        <mxCell id="tCF_0CcCkDeHwtHzLLAt-241" style="edgeStyle=elbowEdgeStyle;rounded=0;orthogonalLoop=1;jettySize=auto;html=1;entryX=0.5;entryY=0;entryDx=0;entryDy=0;strokeWidth=8;elbow=vertical;endArrow=none;endFill=0;strokeColor=#1A1A1A;" edge="1" parent="1" source="tCF_0CcCkDeHwtHzLLAt-236" target="tCF_0CcCkDeHwtHzLLAt-239">
          <mxGeometry relative="1" as="geometry" />
        </mxCell>
        <mxCell id="tCF_0CcCkDeHwtHzLLAt-243" style="edgeStyle=orthogonalEdgeStyle;rounded=0;orthogonalLoop=1;jettySize=auto;html=1;strokeColor=#1A1A1A;strokeWidth=8;endArrow=none;endFill=0;" edge="1" parent="1" source="tCF_0CcCkDeHwtHzLLAt-236" target="tCF_0CcCkDeHwtHzLLAt-242">
          <mxGeometry relative="1" as="geometry" />
        </mxCell>
        <mxCell id="tCF_0CcCkDeHwtHzLLAt-236" value="Software Requirement" style="whiteSpace=wrap;rounded=1;shadow=1;fillColor=#10739E;strokeColor=none;fontColor=#FFFFFF;fontStyle=1;fontSize=24" vertex="1" parent="1">
          <mxGeometry x="1000" y="550" width="340" height="60" as="geometry" />
        </mxCell>
        <mxCell id="tCF_0CcCkDeHwtHzLLAt-245" value="" style="edgeStyle=orthogonalEdgeStyle;rounded=0;orthogonalLoop=1;jettySize=auto;html=1;exitX=0;exitY=0.5;exitDx=0;exitDy=0;entryX=0;entryY=0.5;entryDx=0;entryDy=0;strokeColor=#23445D;strokeWidth=8;endArrow=none;endFill=0;" edge="1" parent="1" source="tCF_0CcCkDeHwtHzLLAt-239" target="tCF_0CcCkDeHwtHzLLAt-244">
          <mxGeometry relative="1" as="geometry" />
        </mxCell>
        <mxCell id="tCF_0CcCkDeHwtHzLLAt-239" value="Software Project Requirements" style="whiteSpace=wrap;rounded=1;fillColor=#76608a;strokeColor=#432D57;shadow=1;fontColor=#ffffff;fontStyle=1;fontSize=14" vertex="1" parent="1">
          <mxGeometry x="930" y="676.9999999999998" width="140" height="60" as="geometry" />
        </mxCell>
        <mxCell id="tCF_0CcCkDeHwtHzLLAt-257" value="" style="edgeStyle=orthogonalEdgeStyle;rounded=0;orthogonalLoop=1;jettySize=auto;html=1;entryX=0;entryY=0.5;entryDx=0;entryDy=0;exitX=0;exitY=0.5;exitDx=0;exitDy=0;strokeColor=#23445D;strokeWidth=8;endArrow=none;endFill=0;" edge="1" parent="1" source="tCF_0CcCkDeHwtHzLLAt-242" target="tCF_0CcCkDeHwtHzLLAt-256">
          <mxGeometry relative="1" as="geometry" />
        </mxCell>
        <mxCell id="tCF_0CcCkDeHwtHzLLAt-242" value="Software Product Requirements" style="whiteSpace=wrap;rounded=1;fillColor=#76608a;strokeColor=#432D57;shadow=1;fontColor=#ffffff;fontStyle=1;fontSize=14" vertex="1" parent="1">
          <mxGeometry x="1270" y="676.9999999999998" width="140" height="60" as="geometry" />
        </mxCell>
        <mxCell id="tCF_0CcCkDeHwtHzLLAt-244" value="Team" style="whiteSpace=wrap;html=1;fontSize=14;fillColor=#6a6a6a;strokeColor=none;fontColor=#FFFFFF;rounded=1;shadow=1;fontStyle=1;" vertex="1" parent="1">
          <mxGeometry x="940" y="809.9999999999998" width="120" height="60" as="geometry" />
        </mxCell>
        <mxCell id="tCF_0CcCkDeHwtHzLLAt-253" value="&lt;div&gt;Technology&lt;/div&gt;" style="whiteSpace=wrap;html=1;fontSize=14;fillColor=#6a6a6a;strokeColor=none;fontColor=#FFFFFF;rounded=1;shadow=1;fontStyle=1;" vertex="1" parent="1">
          <mxGeometry x="940" y="949.9999999999998" width="120" height="60" as="geometry" />
        </mxCell>
        <mxCell id="tCF_0CcCkDeHwtHzLLAt-255" value="" style="edgeStyle=orthogonalEdgeStyle;rounded=0;orthogonalLoop=1;jettySize=auto;html=1;exitX=0;exitY=0.5;exitDx=0;exitDy=0;entryX=0;entryY=0.5;entryDx=0;entryDy=0;strokeColor=#23445D;strokeWidth=8;endArrow=none;endFill=0;" edge="1" parent="1" source="tCF_0CcCkDeHwtHzLLAt-239" target="tCF_0CcCkDeHwtHzLLAt-253">
          <mxGeometry relative="1" as="geometry">
            <mxPoint x="940" y="717" as="sourcePoint" />
            <mxPoint x="950" y="850" as="targetPoint" />
            <Array as="points">
              <mxPoint x="910" y="707" />
              <mxPoint x="910" y="980" />
            </Array>
          </mxGeometry>
        </mxCell>
        <mxCell id="tCF_0CcCkDeHwtHzLLAt-256" value="Functional" style="whiteSpace=wrap;html=1;fontSize=14;fillColor=#6A6A6A;strokeColor=none;fontColor=#FFFFFF;rounded=1;shadow=1;fontStyle=1;" vertex="1" parent="1">
          <mxGeometry x="1280" y="809.9999999999998" width="120" height="60" as="geometry" />
        </mxCell>
        <mxCell id="tCF_0CcCkDeHwtHzLLAt-258" value="Non-Functional" style="whiteSpace=wrap;html=1;fontSize=14;fillColor=#6A6A6A;strokeColor=none;fontColor=#FFFFFF;rounded=1;shadow=1;fontStyle=1;" vertex="1" parent="1">
          <mxGeometry x="1280" y="949.9999999999998" width="120" height="60" as="geometry" />
        </mxCell>
        <mxCell id="tCF_0CcCkDeHwtHzLLAt-260" value="" style="edgeStyle=orthogonalEdgeStyle;rounded=0;orthogonalLoop=1;jettySize=auto;html=1;entryX=0;entryY=0.5;entryDx=0;entryDy=0;exitX=0;exitY=0.5;exitDx=0;exitDy=0;strokeColor=#23445D;strokeWidth=8;endArrow=none;endFill=0;" edge="1" parent="1" source="tCF_0CcCkDeHwtHzLLAt-242" target="tCF_0CcCkDeHwtHzLLAt-258">
          <mxGeometry relative="1" as="geometry">
            <mxPoint x="1280" y="717" as="sourcePoint" />
            <mxPoint x="1290" y="850" as="targetPoint" />
          </mxGeometry>
        </mxCell>
        <mxCell id="tCF_0CcCkDeHwtHzLLAt-265" value="" style="shape=curlyBracket;whiteSpace=wrap;html=1;rounded=1;flipH=1;labelPosition=right;verticalLabelPosition=middle;align=left;verticalAlign=middle;" vertex="1" parent="1">
          <mxGeometry x="1440" y="540" width="20" height="500" as="geometry" />
        </mxCell>
        <mxCell id="tCF_0CcCkDeHwtHzLLAt-280" style="edgeStyle=orthogonalEdgeStyle;rounded=0;orthogonalLoop=1;jettySize=auto;html=1;entryX=0.5;entryY=0;entryDx=0;entryDy=0;strokeWidth=8;endArrow=none;endFill=0;" edge="1" parent="1" source="tCF_0CcCkDeHwtHzLLAt-267" target="tCF_0CcCkDeHwtHzLLAt-268">
          <mxGeometry relative="1" as="geometry">
            <Array as="points">
              <mxPoint x="1971" y="660" />
              <mxPoint x="1571" y="660" />
            </Array>
          </mxGeometry>
        </mxCell>
        <mxCell id="tCF_0CcCkDeHwtHzLLAt-281" style="edgeStyle=orthogonalEdgeStyle;rounded=0;orthogonalLoop=1;jettySize=auto;html=1;entryX=0.5;entryY=0;entryDx=0;entryDy=0;strokeWidth=8;endArrow=none;endFill=0;" edge="1" parent="1" source="tCF_0CcCkDeHwtHzLLAt-267" target="tCF_0CcCkDeHwtHzLLAt-270">
          <mxGeometry relative="1" as="geometry">
            <Array as="points">
              <mxPoint x="1971" y="660" />
              <mxPoint x="1730" y="660" />
            </Array>
          </mxGeometry>
        </mxCell>
        <mxCell id="tCF_0CcCkDeHwtHzLLAt-282" style="edgeStyle=orthogonalEdgeStyle;rounded=0;orthogonalLoop=1;jettySize=auto;html=1;entryX=0.5;entryY=0;entryDx=0;entryDy=0;strokeWidth=8;endArrow=none;endFill=0;" edge="1" parent="1" source="tCF_0CcCkDeHwtHzLLAt-267" target="tCF_0CcCkDeHwtHzLLAt-272">
          <mxGeometry relative="1" as="geometry">
            <Array as="points">
              <mxPoint x="1971" y="660" />
              <mxPoint x="1890" y="660" />
            </Array>
          </mxGeometry>
        </mxCell>
        <mxCell id="tCF_0CcCkDeHwtHzLLAt-283" style="edgeStyle=orthogonalEdgeStyle;rounded=0;orthogonalLoop=1;jettySize=auto;html=1;entryX=0.5;entryY=0;entryDx=0;entryDy=0;strokeWidth=8;endArrow=none;endFill=0;" edge="1" parent="1" source="tCF_0CcCkDeHwtHzLLAt-267" target="tCF_0CcCkDeHwtHzLLAt-275">
          <mxGeometry relative="1" as="geometry">
            <Array as="points">
              <mxPoint x="1971" y="660" />
              <mxPoint x="2050" y="660" />
            </Array>
          </mxGeometry>
        </mxCell>
        <mxCell id="tCF_0CcCkDeHwtHzLLAt-284" style="edgeStyle=orthogonalEdgeStyle;rounded=0;orthogonalLoop=1;jettySize=auto;html=1;entryX=0.5;entryY=0;entryDx=0;entryDy=0;exitX=0.5;exitY=1;exitDx=0;exitDy=0;strokeWidth=8;endArrow=none;endFill=0;" edge="1" parent="1" source="tCF_0CcCkDeHwtHzLLAt-267" target="tCF_0CcCkDeHwtHzLLAt-276">
          <mxGeometry relative="1" as="geometry">
            <Array as="points">
              <mxPoint x="1971" y="660" />
              <mxPoint x="2210" y="660" />
            </Array>
          </mxGeometry>
        </mxCell>
        <mxCell id="tCF_0CcCkDeHwtHzLLAt-285" style="edgeStyle=orthogonalEdgeStyle;rounded=0;orthogonalLoop=1;jettySize=auto;html=1;entryX=0.5;entryY=0;entryDx=0;entryDy=0;strokeWidth=8;endArrow=none;endFill=0;" edge="1" parent="1" source="tCF_0CcCkDeHwtHzLLAt-267" target="tCF_0CcCkDeHwtHzLLAt-277">
          <mxGeometry relative="1" as="geometry">
            <Array as="points">
              <mxPoint x="1971" y="660" />
              <mxPoint x="2370" y="660" />
            </Array>
          </mxGeometry>
        </mxCell>
        <mxCell id="tCF_0CcCkDeHwtHzLLAt-267" value="Impacts" style="whiteSpace=wrap;rounded=1;shadow=1;fillColor=#f0a30a;strokeColor=#BD7000;fontStyle=1;fontSize=24;fontColor=#000000;" vertex="1" parent="1">
          <mxGeometry x="1800.5" y="550" width="340" height="60" as="geometry" />
        </mxCell>
        <mxCell id="tCF_0CcCkDeHwtHzLLAt-268" value="Cost" style="whiteSpace=wrap;html=1;fontSize=24;rounded=1;shadow=1;fontStyle=1;" vertex="1" parent="1">
          <mxGeometry x="1511" y="760" width="120" height="60" as="geometry" />
        </mxCell>
        <mxCell id="tCF_0CcCkDeHwtHzLLAt-270" value="Schedule" style="whiteSpace=wrap;html=1;fontSize=24;rounded=1;shadow=1;fontStyle=1;" vertex="1" parent="1">
          <mxGeometry x="1670" y="760" width="120" height="60" as="geometry" />
        </mxCell>
        <mxCell id="tCF_0CcCkDeHwtHzLLAt-272" value="Scope" style="whiteSpace=wrap;html=1;fontSize=24;rounded=1;shadow=1;fontStyle=1;" vertex="1" parent="1">
          <mxGeometry x="1830" y="760" width="120" height="60" as="geometry" />
        </mxCell>
        <mxCell id="tCF_0CcCkDeHwtHzLLAt-275" value="Rework" style="whiteSpace=wrap;html=1;fontSize=24;rounded=1;shadow=1;fontStyle=1;" vertex="1" parent="1">
          <mxGeometry x="1990" y="760" width="120" height="60" as="geometry" />
        </mxCell>
        <mxCell id="tCF_0CcCkDeHwtHzLLAt-276" value="Quality" style="whiteSpace=wrap;html=1;fontSize=24;rounded=1;shadow=1;fontStyle=1;" vertex="1" parent="1">
          <mxGeometry x="2150" y="760" width="120" height="60" as="geometry" />
        </mxCell>
        <mxCell id="tCF_0CcCkDeHwtHzLLAt-277" value="Workflow" style="whiteSpace=wrap;html=1;fontSize=24;rounded=1;shadow=1;fontStyle=1;" vertex="1" parent="1">
          <mxGeometry x="2310" y="760" width="120" height="60" as="geometry" />
        </mxCell>
      </root>
    </mxGraphModel>
  </diagram>
</mxfile>
